<svg xmlns="http://www.w3.org/2000/svg" viewBox="0 0 512 512" width="512" height="512">
  <defs>
    <linearGradient id="bg" x1="0" y1="0" x2="1" y2="1">
      <stop offset="0" stop-color="#3b82f6"/>
      <stop offset="1" stop-color="#1d4ed8"/>
    </linearGradient>
  </defs>
  <rect x="32" y="32" width="448" height="448" rx="104" fill="url(#bg)"/>
  <!-- post -->
  <rect x="236" y="120" width="40" height="300" rx="12" fill="#ffffff" opacity="0.92"/>
  <!-- upper arrow pointing right -->
  <path d="M150 156 h190 l52 44 -52 44 h-190 a14 14 0 0 1 -14 -14 v-60 a14 14 0 0 1 14 -14z" fill="#ffffff"/>
  <!-- lower arrow pointing left -->
  <path d="M362 268 h-190 l-52 44 52 44 h190 a14 14 0 0 0 14 -14 v-60 a14 14 0 0 0 -14 -14z" fill="#dbeafe"/>
</svg>
